<?xml version="1.0" encoding="UTF-8"?> <svg xmlns="http://www.w3.org/2000/svg" width="20" height="20" viewBox="0 0 20 20" fill="none"><path d="M18.8955 0H1.10386C0.494632 0 0 0.493652 0 1.10388V18.8958C0 19.506 0.494632 20.0003 1.10386 20.0003H10.6824V12.255H8.07614V9.23612H10.6824V7.00991C10.6824 4.42706 12.2594 3.01988 14.564 3.01988C15.6689 3.01988 16.6163 3.10254 16.8926 3.13843V5.83821L15.2941 5.83886C14.0411 5.83886 13.7993 6.43461 13.7993 7.30832V9.23518H16.7888L16.3979 12.2537H13.799V19.9993H18.8952C19.505 19.9993 20 19.5044 20 18.8958V1.10322C19.9997 0.493652 19.5054 0 18.8955 0Z" fill="#343a40"></path></svg>