<?xml version="1.0" encoding="UTF-8"?> <svg xmlns="http://www.w3.org/2000/svg" width="20" height="20" viewBox="0 0 20 20" fill="none"><path d="M2.568 0.000488281H17.4332C18.8455 0.000488281 20 1.15542 20 2.56769V17.4329C20 18.8448 18.8455 19.9989 17.4332 19.9989H2.568C1.15573 19.9989 0 18.8447 0 17.4329V2.56769C0 1.15542 1.15573 0.000488281 2.568 0.000488281ZM14.5697 2.22162C14.0739 2.22162 13.6694 2.62769 13.6694 3.12329V5.27756C13.6694 5.77336 14.0739 6.17849 14.5697 6.17849H16.8299C17.325 6.17849 17.7303 5.77336 17.7303 5.27756V3.12329C17.7303 2.62769 17.325 2.22162 16.8299 2.22162H14.5697ZM17.7389 8.45757H15.9792C16.1461 9.00257 16.2365 9.5773 16.2365 10.1748C16.2365 13.5003 13.4521 16.1975 10.0188 16.1975C6.58633 16.1975 3.80187 13.5003 3.80187 10.1748C3.80187 9.5773 3.8932 9.00257 4.05927 8.45757H2.22333V16.9064C2.22333 17.3439 2.5806 17.6998 3.01773 17.6998H16.9449C17.3824 17.6998 17.7389 17.3439 17.7389 16.9064V8.45757ZM10.0189 6.06489C7.80153 6.06489 6.00287 7.80677 6.00287 9.95744C6.00287 12.1059 7.80153 13.8491 10.0189 13.8491C12.2374 13.8491 14.0361 12.1059 14.0361 9.95744C14.0361 7.8067 12.2374 6.06489 10.0189 6.06489Z" fill="#343a40"></path></svg>