<?xml version="1.0" encoding="UTF-8"?> <svg xmlns="http://www.w3.org/2000/svg" width="20" height="20" viewBox="0 0 20 20" fill="none"><path d="M17.8389 0H2.16114C0.967616 0 0 0.967616 0 2.16114V17.8389C0 19.0324 0.967616 20 2.16114 20H17.8389C19.0324 20 20 19.0324 20 17.8389V2.16114C20 0.967616 19.0324 0 17.8389 0ZM16.1693 8.71245C14.9032 8.71245 13.73 8.30745 12.7721 7.61998V12.5817C12.7721 15.0601 10.7561 17.0761 8.27819 17.0761C7.32072 17.0761 6.4327 16.7741 5.70269 16.2614C4.54389 15.4479 3.78424 14.1022 3.78424 12.5817C3.78424 10.1038 5.80023 8.08779 8.27819 8.08779C8.48381 8.08779 8.68552 8.10456 8.88373 8.13149V10.6243C8.69216 10.5642 8.48927 10.5295 8.27819 10.5295C7.14631 10.5295 6.22591 11.4503 6.22591 12.5817C6.22591 13.3699 6.67265 14.0546 7.32618 14.3984C7.611 14.5486 7.93445 14.6344 8.27819 14.6344C9.38392 14.6344 10.2856 13.755 10.3266 12.659L10.3305 2.87398H12.7721C12.7721 3.08545 12.7928 3.29224 12.8299 3.49317C13.0023 4.42372 13.5544 5.22161 14.3192 5.72064C14.8521 6.06789 15.4873 6.27078 16.1693 6.27078V8.71245V8.71245Z" fill="#343a40"></path></svg>