<?xml version="1.0" encoding="UTF-8"?> <svg xmlns="http://www.w3.org/2000/svg" width="29" height="20" viewBox="0 0 29 20" fill="none"><g clip-path="url(#clip0_472_1832)"><path d="M28.4026 3.12953C28.0684 1.90579 27.0888 0.941127 25.8465 0.61161C23.5773 0 14.4997 0 14.4997 0C14.4997 0 5.42246 -8.51495e-08 3.15313 0.588423C1.93482 0.91759 0.931383 1.90596 0.597209 3.12953C1.2964e-07 5.36466 0 9.99999 0 9.99999C0 9.99999 1.2964e-07 14.6587 0.597209 16.8704C0.931738 18.094 1.91093 19.0587 3.1533 19.3883C5.44636 20 14.5 20 14.5 20C14.5 20 23.5773 20 25.8465 19.4116C27.0889 19.0823 28.0684 18.1176 28.4029 16.894C28.9999 14.6587 28.9999 10.0235 28.9999 10.0235C28.9999 10.0235 29.0238 5.36466 28.4026 3.12953ZM11.6096 14.2823V5.7177L19.158 9.99999L11.6096 14.2823Z" fill="#343a40"></path></g><defs><clipPath id="clip0_472_1832"><rect width="29" height="20" fill="#000"></rect></clipPath></defs></svg>